<?xml version="1.0" encoding="UTF-8" standalone="no"?>
<!DOCTYPE svg PUBLIC "-//W3C//DTD SVG 1.1//EN"
 "http://www.w3.org/Graphics/SVG/1.1/DTD/svg11.dtd">
<!-- Generated by graphviz version 2.38.0 (20140413.2041)
 -->
<!-- Title: Fighting Fantasy: Title Pages: 1 -->
<svg width="1530pt" height="2155pt"
 viewBox="0.00 0.00 1530.00 2154.50" xmlns="http://www.w3.org/2000/svg" xmlns:xlink="http://www.w3.org/1999/xlink">
<g id="graph0" class="graph" transform="scale(1 1) rotate(0) translate(4 2150.5)">
<title>Fighting Fantasy: Title</title>
<polygon fill="white" stroke="none" points="-4,4 -4,-2150.5 1526,-2150.5 1526,4 -4,4"/>
<g id="clust6" class="cluster"><title>cluster_MONSTER</title>
<polygon fill="#90ee90" stroke="#90ee90" points="386,-953.5 386,-1201.5 1287,-1201.5 1287,-953.5 386,-953.5"/>
<text text-anchor="middle" x="836.5" y="-1186.3" font-family="Times New Roman,serif" font-size="14.00">? MONSTER</text>
<text text-anchor="middle" x="836.5" y="-1171.3" font-family="Times New Roman,serif" font-size="14.00"> 0/0 0/0</text>
</g>
<!-- title -->
<g id="node1" class="node"><title>title</title>
<polygon fill="none" stroke="black" points="858,-723 0,-723 0,-0 858,-0 858,-723"/>
<text text-anchor="middle" x="429" y="-704.8" font-family="Times New Roman,serif" font-size="14.00">Fighting Fantasy: Title &#45;&#45;/&#45;&#45;/&#45;&#45;</text>
<text text-anchor="start" x="7" y="-673.8" font-family="Times New Roman,serif" font-size="14.00"> 		Light Green Fill: Benefits</text>
<text text-anchor="start" x="7" y="-658.8" font-family="Times New Roman,serif" font-size="14.00"> 		Pink Fill: Penalties</text>
<text text-anchor="start" x="7" y="-643.8" font-family="Times New Roman,serif" font-size="14.00"> 		Red Fill: Death</text>
<text text-anchor="start" x="7" y="-628.8" font-family="Times New Roman,serif" font-size="14.00"> 		Blue Text: Key Items/Events</text>
<text text-anchor="start" x="7" y="-613.8" font-family="Times New Roman,serif" font-size="14.00"> 		Red Text: Lost Items</text>
<text text-anchor="start" x="7" y="-598.8" font-family="Times New Roman,serif" font-size="14.00"> 		Purple Text: Shops</text>
<text text-anchor="start" x="7" y="-583.8" font-family="Times New Roman,serif" font-size="14.00"> 		Blue Line: Forced Items/Events</text>
<text text-anchor="start" x="7" y="-568.8" font-family="Times New Roman,serif" font-size="14.00"> 		Light Blue Text/Line: Optional Items/Events</text>
<text text-anchor="start" x="7" y="-553.8" font-family="Times New Roman,serif" font-size="14.00"> 		Purple Line: Dice Related Events</text>
<text text-anchor="start" x="7" y="-538.8" font-family="Times New Roman,serif" font-size="14.00"> 		Green Line: Stat Test Passed</text>
<text text-anchor="start" x="7" y="-523.8" font-family="Times New Roman,serif" font-size="14.00"> 		Brown Line: Stat Test Failed</text>
<text text-anchor="start" x="7" y="-508.8" font-family="Times New Roman,serif" font-size="14.00"> 		Magenta Line: Combat Related Events</text>
<text text-anchor="start" x="7" y="-493.8" font-family="Times New Roman,serif" font-size="14.00"> 		Grey Text: Riddle Answer</text>
<text text-anchor="start" x="7" y="-478.8" font-family="Times New Roman,serif" font-size="14.00"> 		Grey Line: Hidden Option</text>
<text text-anchor="start" x="7" y="-463.8" font-family="Times New Roman,serif" font-size="14.00"> 		Orange Line: Spells</text>
<text text-anchor="start" x="7" y="-448.8" font-family="Times New Roman,serif" font-size="14.00"> 		Red Line: Possible Error</text>
<text text-anchor="start" x="7" y="-433.8" font-family="Times New Roman,serif" font-size="14.00"> 		Gold/Yellow Fill: Required Nodes</text>
<text text-anchor="start" x="7" y="-418.8" font-family="Times New Roman,serif" font-size="14.00"> 		Light Blue Fill: Recommended Nodes</text>
<text text-anchor="start" x="7" y="-403.8" font-family="Times New Roman,serif" font-size="14.00"> 		Gold Outline: Recommended Path</text>
<text text-anchor="start" x="7" y="-388.8" font-family="Times New Roman,serif" font-size="14.00"> 		Green Box: Combat</text>
<text text-anchor="start" x="7" y="-373.8" font-family="Times New Roman,serif" font-size="14.00"> 		SK/ST/LK/AS/AR/TM/CW/CL: Skill/Stamina/Luck/Attack Strength/Attack Round/Time/Consecutive Win Round/Consecutive Lose Round</text>
<text text-anchor="start" x="7" y="-358.8" font-family="Times New Roman,serif" font-size="14.00"> 		?: Chance of this happening, depending on instructions in text</text>
<text text-anchor="start" x="7" y="-343.8" font-family="Times New Roman,serif" font-size="14.00"> 		*: Special Combat Rules</text>
<text text-anchor="start" x="7" y="-328.8" font-family="Times New Roman,serif" font-size="14.00"> 		&#45;: Negative Status</text>
<text text-anchor="start" x="7" y="-313.8" font-family="Times New Roman,serif" font-size="14.00"> 		+: Positive Status</text>
<text text-anchor="start" x="7" y="-298.8" font-family="Times New Roman,serif" font-size="14.00"> 		^: Damage can be reduced by items</text>
<text text-anchor="start" x="7" y="-283.8" font-family="Times New Roman,serif" font-size="14.00"> 		@: Take 2 items</text>
<text text-anchor="start" x="7" y="-252.8" font-family="Times New Roman,serif" font-size="14.00"> 		Starts with:</text>
<text text-anchor="start" x="7" y="-237.8" font-family="Times New Roman,serif" font-size="14.00"> 		Initial Skill: 1d6+6</text>
<text text-anchor="start" x="7" y="-222.8" font-family="Times New Roman,serif" font-size="14.00"> 		Initial Stamina: 2d6+12</text>
<text text-anchor="start" x="7" y="-207.8" font-family="Times New Roman,serif" font-size="14.00"> 		Initial Luck: 1d6+6</text>
<text text-anchor="start" x="7" y="-176.8" font-family="Times New Roman,serif" font-size="14.00"> 		skill/stamina/luck potion: +all SK/ST/LK&amp;1ILK</text>
<text text-anchor="start" x="7" y="-161.8" font-family="Times New Roman,serif" font-size="14.00"> 		10 meal: +4ST</text>
<text text-anchor="start" x="7" y="-146.8" font-family="Times New Roman,serif" font-size="14.00"> 		sword</text>
<text text-anchor="start" x="7" y="-131.8" font-family="Times New Roman,serif" font-size="14.00"> 		leather armor</text>
<text text-anchor="start" x="7" y="-116.8" font-family="Times New Roman,serif" font-size="14.00"> 		lantern</text>
<text text-anchor="start" x="7" y="-101.8" font-family="Times New Roman,serif" font-size="14.00"> 		tinderbox</text>
<text text-anchor="start" x="7" y="-86.8" font-family="Times New Roman,serif" font-size="14.00"> 		2d6+6 gold</text>
<text text-anchor="start" x="7" y="-71.8" font-family="Times New Roman,serif" font-size="14.00"> 		backpack</text>
<text text-anchor="start" x="7" y="-40.8" font-family="Times New Roman,serif" font-size="14.00"> 		Comments:</text>
<text text-anchor="start" x="7" y="-25.8" font-family="Times New Roman,serif" font-size="14.00"> 		none</text>
<text text-anchor="middle" x="429" y="-10.8" font-family="Times New Roman,serif" font-size="14.00"> 		</text>
</g>
<!-- key3 -->
<g id="node2" class="node"><title>key3</title>
<polygon fill="gold" stroke="gold" points="1276,-795.5 1226,-795.5 1226,-745.5 1276,-745.5 1276,-795.5"/>
<text text-anchor="middle" x="1251" y="-774.3" font-family="Times New Roman,serif" font-size="14.00" fill="blue">key3</text>
<text text-anchor="middle" x="1251" y="-759.3" font-family="Times New Roman,serif" font-size="14.00" fill="blue"> text</text>
</g>
<!-- boo5 -->
<g id="node3" class="node"><title>boo5</title>
<polygon fill="gold" stroke="gold" points="1276,-867.5 1226,-867.5 1226,-817.5 1276,-817.5 1276,-867.5"/>
<text text-anchor="middle" x="1251" y="-846.3" font-family="Times New Roman,serif" font-size="14.00" fill="blue">boo5</text>
<text text-anchor="middle" x="1251" y="-831.3" font-family="Times New Roman,serif" font-size="14.00" fill="blue"> text</text>
</g>
<!-- dam5 -->
<g id="node4" class="node"><title>dam5</title>
<polygon fill="gold" stroke="gold" points="1276,-939.5 1226,-939.5 1226,-889.5 1276,-889.5 1276,-939.5"/>
<text text-anchor="middle" x="1251" y="-918.3" font-family="Times New Roman,serif" font-size="14.00" fill="blue">dam5</text>
<text text-anchor="middle" x="1251" y="-903.3" font-family="Times New Roman,serif" font-size="14.00" fill="blue"> text</text>
</g>
<!-- monboo5 -->
<g id="node5" class="node"><title>monboo5</title>
<polygon fill="gold" stroke="gold" points="1278.5,-1083.5 1223.5,-1083.5 1223.5,-1033.5 1278.5,-1033.5 1278.5,-1083.5"/>
<text text-anchor="middle" x="1251" y="-1062.3" font-family="Times New Roman,serif" font-size="14.00" fill="blue">monboo5</text>
<text text-anchor="middle" x="1251" y="-1047.3" font-family="Times New Roman,serif" font-size="14.00" fill="blue"> text</text>
</g>
<!-- mondam5 -->
<g id="node6" class="node"><title>mondam5</title>
<polygon fill="gold" stroke="gold" points="1279,-1011.5 1223,-1011.5 1223,-961.5 1279,-961.5 1279,-1011.5"/>
<text text-anchor="middle" x="1251" y="-990.3" font-family="Times New Roman,serif" font-size="14.00" fill="blue">mondam5</text>
<text text-anchor="middle" x="1251" y="-975.3" font-family="Times New Roman,serif" font-size="14.00" fill="blue"> text</text>
</g>
<!-- mon5 -->
<g id="node7" class="node"><title>mon5</title>
<polygon fill="gold" stroke="gold" points="1276,-1155.5 1226,-1155.5 1226,-1105.5 1276,-1105.5 1276,-1155.5"/>
<text text-anchor="middle" x="1251" y="-1134.3" font-family="Times New Roman,serif" font-size="14.00" fill="blue">mon5</text>
<text text-anchor="middle" x="1251" y="-1119.3" font-family="Times New Roman,serif" font-size="14.00" fill="blue"> text</text>
</g>
<!-- ending -->
<g id="node8" class="node"><title>ending</title>
<polygon fill="gold" stroke="gold" points="454,-1224.14 454,-1244.86 439.355,-1259.5 418.645,-1259.5 404,-1244.86 404,-1224.14 418.645,-1209.5 439.355,-1209.5 454,-1224.14"/>
<text text-anchor="middle" x="429" y="-1230.8" font-family="Times New Roman,serif" font-size="14.00">ending</text>
</g>
<!-- req2 -->
<g id="node9" class="node"><title>req2</title>
<polygon fill="#fff700" stroke="#fff700" points="454,-1331.5 404,-1331.5 404,-1281.5 454,-1281.5 454,-1331.5"/>
<text text-anchor="middle" x="429" y="-1302.8" font-family="Times New Roman,serif" font-size="14.00" fill="blue">req2</text>
</g>
<!-- txt2 -->
<g id="node10" class="node"><title>txt2</title>
<ellipse fill="none" stroke="gold" stroke-width="3" cx="1029" cy="-770.5" rx="25" ry="25"/>
<text text-anchor="middle" x="1029" y="-766.8" font-family="Times New Roman,serif" font-size="14.00">txt2</text>
</g>
<!-- key2 -->
<g id="node11" class="node"><title>key2</title>
<polygon fill="none" stroke="gold" stroke-width="3" points="1166,-795.5 1116,-795.5 1116,-745.5 1166,-745.5 1166,-795.5"/>
<text text-anchor="middle" x="1141" y="-774.3" font-family="Times New Roman,serif" font-size="14.00" fill="blue">key2</text>
<text text-anchor="middle" x="1141" y="-759.3" font-family="Times New Roman,serif" font-size="14.00" fill="blue"> text</text>
</g>
<!-- txt2&#45;&gt;key2 -->
<g id="edge15" class="edge"><title>txt2&#45;&gt;key2</title>
<path fill="none" stroke="black" d="M1054.14,-770.5C1069.18,-770.5 1088.78,-770.5 1105.46,-770.5"/>
<polygon fill="black" stroke="black" points="1105.92,-774 1115.92,-770.5 1105.92,-767 1105.92,-774"/>
</g>
<!-- key2&#45;&gt;key3 -->
<g id="edge16" class="edge"><title>key2&#45;&gt;key3</title>
<path fill="none" stroke="black" d="M1166.24,-770.5C1180.83,-770.5 1199.63,-770.5 1215.73,-770.5"/>
<polygon fill="black" stroke="black" points="1215.84,-774 1225.84,-770.5 1215.84,-767 1215.84,-774"/>
</g>
<!-- boo3 -->
<g id="node12" class="node"><title>boo3</title>
<ellipse fill="greenyellow" stroke="gold" stroke-width="3" cx="1029" cy="-842.5" rx="25" ry="25"/>
<text text-anchor="middle" x="1029" y="-846.3" font-family="Times New Roman,serif" font-size="14.00">boo3</text>
<text text-anchor="middle" x="1029" y="-831.3" font-family="Times New Roman,serif" font-size="14.00"> text</text>
</g>
<!-- boo4 -->
<g id="node13" class="node"><title>boo4</title>
<polygon fill="greenyellow" stroke="gold" stroke-width="3" points="1166,-867.5 1116,-867.5 1116,-817.5 1166,-817.5 1166,-867.5"/>
<text text-anchor="middle" x="1141" y="-846.3" font-family="Times New Roman,serif" font-size="14.00" fill="blue">boo4</text>
<text text-anchor="middle" x="1141" y="-831.3" font-family="Times New Roman,serif" font-size="14.00" fill="blue"> text</text>
</g>
<!-- boo3&#45;&gt;boo4 -->
<g id="edge7" class="edge"><title>boo3&#45;&gt;boo4</title>
<path fill="none" stroke="black" stroke-width="3" d="M1054.14,-842.5C1069.18,-842.5 1088.78,-842.5 1105.46,-842.5"/>
<polygon fill="black" stroke="black" stroke-width="3" points="1105.92,-846 1115.92,-842.5 1105.92,-839 1105.92,-846"/>
</g>
<!-- boo4&#45;&gt;boo5 -->
<g id="edge8" class="edge"><title>boo4&#45;&gt;boo5</title>
<path fill="none" stroke="black" stroke-width="3" d="M1166.24,-842.5C1180.83,-842.5 1199.63,-842.5 1215.73,-842.5"/>
<polygon fill="black" stroke="black" stroke-width="3" points="1215.84,-846 1225.84,-842.5 1215.84,-839 1215.84,-846"/>
</g>
<!-- dam3 -->
<g id="node14" class="node"><title>dam3</title>
<ellipse fill="pink" stroke="gold" stroke-width="3" cx="1029" cy="-914.5" rx="25" ry="25"/>
<text text-anchor="middle" x="1029" y="-918.3" font-family="Times New Roman,serif" font-size="14.00">dam3</text>
<text text-anchor="middle" x="1029" y="-903.3" font-family="Times New Roman,serif" font-size="14.00"> text</text>
</g>
<!-- dam4 -->
<g id="node15" class="node"><title>dam4</title>
<polygon fill="pink" stroke="gold" stroke-width="3" points="1166,-939.5 1116,-939.5 1116,-889.5 1166,-889.5 1166,-939.5"/>
<text text-anchor="middle" x="1141" y="-918.3" font-family="Times New Roman,serif" font-size="14.00" fill="blue">dam4</text>
<text text-anchor="middle" x="1141" y="-903.3" font-family="Times New Roman,serif" font-size="14.00" fill="blue"> text</text>
</g>
<!-- dam3&#45;&gt;dam4 -->
<g id="edge11" class="edge"><title>dam3&#45;&gt;dam4</title>
<path fill="none" stroke="black" d="M1054.14,-914.5C1069.18,-914.5 1088.78,-914.5 1105.46,-914.5"/>
<polygon fill="black" stroke="black" points="1105.92,-918 1115.92,-914.5 1105.92,-911 1105.92,-918"/>
</g>
<!-- dam4&#45;&gt;dam5 -->
<g id="edge12" class="edge"><title>dam4&#45;&gt;dam5</title>
<path fill="none" stroke="black" d="M1166.24,-914.5C1180.83,-914.5 1199.63,-914.5 1215.73,-914.5"/>
<polygon fill="black" stroke="black" points="1215.84,-918 1225.84,-914.5 1215.84,-911 1215.84,-918"/>
</g>
<!-- monboo3 -->
<g id="node16" class="node"><title>monboo3</title>
<ellipse fill="greenyellow" stroke="gold" stroke-width="3" cx="1029" cy="-1058.5" rx="34.2505" ry="25"/>
<text text-anchor="middle" x="1029" y="-1062.3" font-family="Times New Roman,serif" font-size="14.00">monboo3</text>
<text text-anchor="middle" x="1029" y="-1047.3" font-family="Times New Roman,serif" font-size="14.00"> text</text>
</g>
<!-- monboo4 -->
<g id="node17" class="node"><title>monboo4</title>
<polygon fill="greenyellow" stroke="gold" stroke-width="3" points="1168.5,-1083.5 1113.5,-1083.5 1113.5,-1033.5 1168.5,-1033.5 1168.5,-1083.5"/>
<text text-anchor="middle" x="1141" y="-1062.3" font-family="Times New Roman,serif" font-size="14.00" fill="blue">monboo4</text>
<text text-anchor="middle" x="1141" y="-1047.3" font-family="Times New Roman,serif" font-size="14.00" fill="blue"> text</text>
</g>
<!-- monboo3&#45;&gt;monboo4 -->
<g id="edge19" class="edge"><title>monboo3&#45;&gt;monboo4</title>
<path fill="none" stroke="black" d="M1063.6,-1058.5C1076.04,-1058.5 1090.21,-1058.5 1102.94,-1058.5"/>
<polygon fill="black" stroke="black" points="1103.22,-1062 1113.22,-1058.5 1103.22,-1055 1103.22,-1062"/>
</g>
<!-- monboo4&#45;&gt;monboo5 -->
<g id="edge20" class="edge"><title>monboo4&#45;&gt;monboo5</title>
<path fill="none" stroke="black" d="M1168.7,-1058.5C1182.07,-1058.5 1198.47,-1058.5 1213.03,-1058.5"/>
<polygon fill="black" stroke="black" points="1213.24,-1062 1223.24,-1058.5 1213.24,-1055 1213.24,-1062"/>
</g>
<!-- mondam3 -->
<g id="node18" class="node"><title>mondam3</title>
<ellipse fill="pink" stroke="gold" stroke-width="3" cx="1029" cy="-986.5" rx="35" ry="25"/>
<text text-anchor="middle" x="1029" y="-990.3" font-family="Times New Roman,serif" font-size="14.00">mondam3</text>
<text text-anchor="middle" x="1029" y="-975.3" font-family="Times New Roman,serif" font-size="14.00"> text</text>
</g>
<!-- mondam4 -->
<g id="node19" class="node"><title>mondam4</title>
<polygon fill="pink" stroke="gold" stroke-width="3" points="1169,-1011.5 1113,-1011.5 1113,-961.5 1169,-961.5 1169,-1011.5"/>
<text text-anchor="middle" x="1141" y="-990.3" font-family="Times New Roman,serif" font-size="14.00" fill="blue">mondam4</text>
<text text-anchor="middle" x="1141" y="-975.3" font-family="Times New Roman,serif" font-size="14.00" fill="blue"> text</text>
</g>
<!-- mondam3&#45;&gt;mondam4 -->
<g id="edge23" class="edge"><title>mondam3&#45;&gt;mondam4</title>
<path fill="none" stroke="black" d="M1064.2,-986.5C1076.42,-986.5 1090.25,-986.5 1102.71,-986.5"/>
<polygon fill="black" stroke="black" points="1102.8,-990 1112.8,-986.5 1102.8,-983 1102.8,-990"/>
</g>
<!-- mondam4&#45;&gt;mondam5 -->
<g id="edge24" class="edge"><title>mondam4&#45;&gt;mondam5</title>
<path fill="none" stroke="black" d="M1169.25,-986.5C1182.43,-986.5 1198.44,-986.5 1212.73,-986.5"/>
<polygon fill="black" stroke="black" points="1212.76,-990 1222.76,-986.5 1212.76,-983 1212.76,-990"/>
</g>
<!-- mon3 -->
<g id="node20" class="node"><title>mon3</title>
<ellipse fill="none" stroke="gold" stroke-width="3" cx="1029" cy="-1130.5" rx="25" ry="25"/>
<text text-anchor="middle" x="1029" y="-1134.3" font-family="Times New Roman,serif" font-size="14.00">mon3</text>
<text text-anchor="middle" x="1029" y="-1119.3" font-family="Times New Roman,serif" font-size="14.00"> text</text>
</g>
<!-- mon4 -->
<g id="node21" class="node"><title>mon4</title>
<polygon fill="none" stroke="gold" stroke-width="3" points="1166,-1155.5 1116,-1155.5 1116,-1105.5 1166,-1105.5 1166,-1155.5"/>
<text text-anchor="middle" x="1141" y="-1134.3" font-family="Times New Roman,serif" font-size="14.00" fill="blue">mon4</text>
<text text-anchor="middle" x="1141" y="-1119.3" font-family="Times New Roman,serif" font-size="14.00" fill="blue"> text</text>
</g>
<!-- mon3&#45;&gt;mon4 -->
<g id="edge3" class="edge"><title>mon3&#45;&gt;mon4</title>
<path fill="none" stroke="black" stroke-width="3" d="M1054.14,-1130.5C1069.18,-1130.5 1088.78,-1130.5 1105.46,-1130.5"/>
<polygon fill="black" stroke="black" stroke-width="3" points="1105.92,-1134 1115.92,-1130.5 1105.92,-1127 1105.92,-1134"/>
</g>
<!-- mon4&#45;&gt;mon5 -->
<g id="edge4" class="edge"><title>mon4&#45;&gt;mon5</title>
<path fill="none" stroke="black" stroke-width="3" d="M1166.24,-1130.5C1180.83,-1130.5 1199.63,-1130.5 1215.73,-1130.5"/>
<polygon fill="black" stroke="black" stroke-width="3" points="1215.84,-1134 1225.84,-1130.5 1215.84,-1127 1215.84,-1134"/>
</g>
<!-- opt -->
<g id="node22" class="node"><title>opt</title>
<polygon fill="#bbffff" stroke="#bbffff" points="454,-1403.5 404,-1403.5 404,-1353.5 454,-1353.5 454,-1403.5"/>
<text text-anchor="middle" x="429" y="-1374.8" font-family="Times New Roman,serif" font-size="14.00" fill="blue">opt</text>
</g>
<!-- mon1 -->
<g id="node23" class="node"><title>mon1</title>
<ellipse fill="none" stroke="black" cx="429" cy="-1130.5" rx="25" ry="25"/>
<text text-anchor="middle" x="429" y="-1134.3" font-family="Times New Roman,serif" font-size="14.00">mon1</text>
<text text-anchor="middle" x="429" y="-1119.3" font-family="Times New Roman,serif" font-size="14.00"> text</text>
</g>
<!-- mon2 -->
<g id="node24" class="node"><title>mon2</title>
<polygon fill="none" stroke="black" points="942,-1155.5 892,-1155.5 892,-1105.5 942,-1105.5 942,-1155.5"/>
<text text-anchor="middle" x="917" y="-1134.3" font-family="Times New Roman,serif" font-size="14.00" fill="blue">mon2</text>
<text text-anchor="middle" x="917" y="-1119.3" font-family="Times New Roman,serif" font-size="14.00" fill="blue"> text</text>
</g>
<!-- mon1&#45;&gt;mon2 -->
<g id="edge1" class="edge"><title>mon1&#45;&gt;mon2</title>
<path fill="none" stroke="black" stroke-width="3" d="M454.101,-1130.5C533.692,-1130.5 788.35,-1130.5 881.473,-1130.5"/>
<polygon fill="black" stroke="black" stroke-width="3" points="881.754,-1134 891.754,-1130.5 881.754,-1127 881.754,-1134"/>
</g>
<!-- mon2&#45;&gt;mon3 -->
<g id="edge2" class="edge"><title>mon2&#45;&gt;mon3</title>
<path fill="none" stroke="black" stroke-width="3" d="M942.14,-1130.5C957.185,-1130.5 976.785,-1130.5 993.459,-1130.5"/>
<polygon fill="black" stroke="black" stroke-width="3" points="993.916,-1134 1003.92,-1130.5 993.916,-1127 993.916,-1134"/>
</g>
<!-- monboo1 -->
<g id="node25" class="node"><title>monboo1</title>
<ellipse fill="greenyellow" stroke="greenyellow" cx="429" cy="-1058.5" rx="34.2505" ry="25"/>
<text text-anchor="middle" x="429" y="-1062.3" font-family="Times New Roman,serif" font-size="14.00">monboo1</text>
<text text-anchor="middle" x="429" y="-1047.3" font-family="Times New Roman,serif" font-size="14.00"> text</text>
</g>
<!-- monboo2 -->
<g id="node26" class="node"><title>monboo2</title>
<polygon fill="greenyellow" stroke="greenyellow" points="944.5,-1083.5 889.5,-1083.5 889.5,-1033.5 944.5,-1033.5 944.5,-1083.5"/>
<text text-anchor="middle" x="917" y="-1062.3" font-family="Times New Roman,serif" font-size="14.00" fill="blue">monboo2</text>
<text text-anchor="middle" x="917" y="-1047.3" font-family="Times New Roman,serif" font-size="14.00" fill="blue"> text</text>
</g>
<!-- monboo1&#45;&gt;monboo2 -->
<g id="edge17" class="edge"><title>monboo1&#45;&gt;monboo2</title>
<path fill="none" stroke="black" d="M463.405,-1058.5C551.18,-1058.5 787.849,-1058.5 879.267,-1058.5"/>
<polygon fill="black" stroke="black" points="879.424,-1062 889.424,-1058.5 879.424,-1055 879.424,-1062"/>
</g>
<!-- monboo2&#45;&gt;monboo3 -->
<g id="edge18" class="edge"><title>monboo2&#45;&gt;monboo3</title>
<path fill="none" stroke="black" d="M944.628,-1058.5C956.586,-1058.5 971.007,-1058.5 984.469,-1058.5"/>
<polygon fill="black" stroke="black" points="984.52,-1062 994.52,-1058.5 984.52,-1055 984.52,-1062"/>
</g>
<!-- mondam1 -->
<g id="node27" class="node"><title>mondam1</title>
<ellipse fill="pink" stroke="pink" cx="429" cy="-986.5" rx="35" ry="25"/>
<text text-anchor="middle" x="429" y="-990.3" font-family="Times New Roman,serif" font-size="14.00">mondam1</text>
<text text-anchor="middle" x="429" y="-975.3" font-family="Times New Roman,serif" font-size="14.00"> text</text>
</g>
<!-- mondam2 -->
<g id="node28" class="node"><title>mondam2</title>
<polygon fill="pink" stroke="pink" points="945,-1011.5 889,-1011.5 889,-961.5 945,-961.5 945,-1011.5"/>
<text text-anchor="middle" x="917" y="-990.3" font-family="Times New Roman,serif" font-size="14.00" fill="blue">mondam2</text>
<text text-anchor="middle" x="917" y="-975.3" font-family="Times New Roman,serif" font-size="14.00" fill="blue"> text</text>
</g>
<!-- mondam1&#45;&gt;mondam2 -->
<g id="edge21" class="edge"><title>mondam1&#45;&gt;mondam2</title>
<path fill="none" stroke="black" d="M464.175,-986.5C552.4,-986.5 787.283,-986.5 878.782,-986.5"/>
<polygon fill="black" stroke="black" points="878.958,-990 888.958,-986.5 878.958,-983 878.958,-990"/>
</g>
<!-- mondam2&#45;&gt;mondam3 -->
<g id="edge22" class="edge"><title>mondam2&#45;&gt;mondam3</title>
<path fill="none" stroke="black" d="M945.191,-986.5C956.737,-986.5 970.503,-986.5 983.463,-986.5"/>
<polygon fill="black" stroke="black" points="983.627,-990 993.627,-986.5 983.627,-983 983.627,-990"/>
</g>
<!-- cbt -->
<g id="node29" class="node"><title>cbt</title>
<ellipse fill="none" stroke="black" cx="429" cy="-1450.5" rx="25" ry="25"/>
<text text-anchor="middle" x="429" y="-1446.8" font-family="Times New Roman,serif" font-size="14.00">cbt</text>
</g>
<!-- ddt -->
<g id="node30" class="node"><title>ddt</title>
<ellipse fill="red" stroke="red" cx="429" cy="-1522.5" rx="25" ry="25"/>
<text text-anchor="middle" x="429" y="-1518.8" font-family="Times New Roman,serif" font-size="14.00">ddt</text>
</g>
<!-- bst -->
<g id="node31" class="node"><title>bst</title>
<ellipse fill="greenyellow" stroke="greenyellow" cx="429" cy="-1594.5" rx="25" ry="25"/>
<text text-anchor="middle" x="429" y="-1590.8" font-family="Times New Roman,serif" font-size="14.00">bst</text>
</g>
<!-- boo1 -->
<g id="node32" class="node"><title>boo1</title>
<ellipse fill="greenyellow" stroke="greenyellow" cx="429" cy="-842.5" rx="25" ry="25"/>
<text text-anchor="middle" x="429" y="-846.3" font-family="Times New Roman,serif" font-size="14.00">boo1</text>
<text text-anchor="middle" x="429" y="-831.3" font-family="Times New Roman,serif" font-size="14.00"> text</text>
</g>
<!-- boo2 -->
<g id="node33" class="node"><title>boo2</title>
<polygon fill="greenyellow" stroke="greenyellow" points="942,-867.5 892,-867.5 892,-817.5 942,-817.5 942,-867.5"/>
<text text-anchor="middle" x="917" y="-846.3" font-family="Times New Roman,serif" font-size="14.00" fill="blue">boo2</text>
<text text-anchor="middle" x="917" y="-831.3" font-family="Times New Roman,serif" font-size="14.00" fill="blue"> text</text>
</g>
<!-- boo1&#45;&gt;boo2 -->
<g id="edge5" class="edge"><title>boo1&#45;&gt;boo2</title>
<path fill="none" stroke="black" stroke-width="3" d="M454.101,-842.5C533.692,-842.5 788.35,-842.5 881.473,-842.5"/>
<polygon fill="black" stroke="black" stroke-width="3" points="881.754,-846 891.754,-842.5 881.754,-839 881.754,-846"/>
</g>
<!-- boo2&#45;&gt;boo3 -->
<g id="edge6" class="edge"><title>boo2&#45;&gt;boo3</title>
<path fill="none" stroke="black" stroke-width="3" d="M942.14,-842.5C957.185,-842.5 976.785,-842.5 993.459,-842.5"/>
<polygon fill="black" stroke="black" stroke-width="3" points="993.916,-846 1003.92,-842.5 993.916,-839 993.916,-846"/>
</g>
<!-- ddg -->
<g id="node34" class="node"><title>ddg</title>
<ellipse fill="pink" stroke="pink" cx="429" cy="-1666.5" rx="25" ry="25"/>
<text text-anchor="middle" x="429" y="-1662.8" font-family="Times New Roman,serif" font-size="14.00">ddg</text>
</g>
<!-- dam1 -->
<g id="node35" class="node"><title>dam1</title>
<ellipse fill="pink" stroke="pink" cx="429" cy="-914.5" rx="25" ry="25"/>
<text text-anchor="middle" x="429" y="-918.3" font-family="Times New Roman,serif" font-size="14.00">dam1</text>
<text text-anchor="middle" x="429" y="-903.3" font-family="Times New Roman,serif" font-size="14.00"> text</text>
</g>
<!-- dam2 -->
<g id="node36" class="node"><title>dam2</title>
<polygon fill="pink" stroke="pink" points="942,-939.5 892,-939.5 892,-889.5 942,-889.5 942,-939.5"/>
<text text-anchor="middle" x="917" y="-918.3" font-family="Times New Roman,serif" font-size="14.00" fill="blue">dam2</text>
<text text-anchor="middle" x="917" y="-903.3" font-family="Times New Roman,serif" font-size="14.00" fill="blue"> text</text>
</g>
<!-- dam1&#45;&gt;dam2 -->
<g id="edge9" class="edge"><title>dam1&#45;&gt;dam2</title>
<path fill="none" stroke="black" d="M454.101,-914.5C533.692,-914.5 788.35,-914.5 881.473,-914.5"/>
<polygon fill="black" stroke="black" points="881.754,-918 891.754,-914.5 881.754,-911 881.754,-918"/>
</g>
<!-- dam2&#45;&gt;dam3 -->
<g id="edge10" class="edge"><title>dam2&#45;&gt;dam3</title>
<path fill="none" stroke="black" d="M942.14,-914.5C957.185,-914.5 976.785,-914.5 993.459,-914.5"/>
<polygon fill="black" stroke="black" points="993.916,-918 1003.92,-914.5 993.916,-911 993.916,-918"/>
</g>
<!-- kky -->
<g id="node37" class="node"><title>kky</title>
<polygon fill="none" stroke="black" points="454,-1763.5 404,-1763.5 404,-1713.5 454,-1713.5 454,-1763.5"/>
<text text-anchor="middle" x="429" y="-1734.8" font-family="Times New Roman,serif" font-size="14.00" fill="blue">kky</text>
</g>
<!-- key1 -->
<g id="node38" class="node"><title>key1</title>
<polygon fill="none" stroke="black" points="942,-795.5 892,-795.5 892,-745.5 942,-745.5 942,-795.5"/>
<text text-anchor="middle" x="917" y="-774.3" font-family="Times New Roman,serif" font-size="14.00" fill="blue">key1</text>
<text text-anchor="middle" x="917" y="-759.3" font-family="Times New Roman,serif" font-size="14.00" fill="blue"> text</text>
</g>
<!-- key1&#45;&gt;txt2 -->
<g id="edge14" class="edge"><title>key1&#45;&gt;txt2</title>
<path fill="none" stroke="black" d="M942.14,-770.5C957.185,-770.5 976.785,-770.5 993.459,-770.5"/>
<polygon fill="black" stroke="black" points="993.916,-774 1003.92,-770.5 993.916,-767 993.916,-774"/>
</g>
<!-- shp -->
<g id="node39" class="node"><title>shp</title>
<polygon fill="none" stroke="black" points="454,-1835.5 404,-1835.5 404,-1785.5 454,-1785.5 454,-1835.5"/>
<text text-anchor="middle" x="429" y="-1806.8" font-family="Times New Roman,serif" font-size="14.00" fill="purple">shp</text>
</g>
<!-- shop1 -->
<g id="node40" class="node"><title>shop1</title>
<polygon fill="none" stroke="black" points="454,-1907.5 404,-1907.5 404,-1857.5 454,-1857.5 454,-1907.5"/>
<text text-anchor="middle" x="429" y="-1886.3" font-family="Times New Roman,serif" font-size="14.00" fill="purple">shop1</text>
<text text-anchor="middle" x="429" y="-1871.3" font-family="Times New Roman,serif" font-size="14.00" fill="purple"> text</text>
</g>
<!-- txt1 -->
<g id="node41" class="node"><title>txt1</title>
<ellipse fill="none" stroke="black" cx="429" cy="-770.5" rx="25" ry="25"/>
<text text-anchor="middle" x="429" y="-766.8" font-family="Times New Roman,serif" font-size="14.00">txt1</text>
</g>
<!-- txt1&#45;&gt;key1 -->
<g id="edge13" class="edge"><title>txt1&#45;&gt;key1</title>
<path fill="none" stroke="black" d="M454.101,-770.5C533.692,-770.5 788.35,-770.5 881.473,-770.5"/>
<polygon fill="black" stroke="black" points="881.754,-774 891.754,-770.5 881.754,-767 881.754,-774"/>
</g>
<!-- myTitle -->
<g id="node42" class="node"><title>myTitle</title>
<ellipse fill="none" stroke="black" cx="429" cy="-1954.5" rx="25" ry="25"/>
<text text-anchor="middle" x="429" y="-1950.8" font-family="Times New Roman,serif" font-size="14.00">myTitle</text>
</g>
<!-- z001 -->
<g id="node43" class="node"><title>z001</title>
<ellipse fill="none" stroke="black" cx="917" cy="-1954.5" rx="25" ry="25"/>
<text text-anchor="middle" x="917" y="-1950.8" font-family="Times New Roman,serif" font-size="14.00">z001</text>
</g>
<!-- myTitle&#45;&gt;z001 -->
<g id="edge25" class="edge"><title>myTitle&#45;&gt;z001</title>
<path fill="none" stroke="black" stroke-width="3" d="M454.101,-1954.5C533.692,-1954.5 788.35,-1954.5 881.473,-1954.5"/>
<polygon fill="black" stroke="black" stroke-width="3" points="881.754,-1958 891.754,-1954.5 881.754,-1951 881.754,-1958"/>
</g>
<!-- z002 -->
<g id="node44" class="node"><title>z002</title>
<ellipse fill="none" stroke="black" cx="1029" cy="-2005.5" rx="25" ry="25"/>
<text text-anchor="middle" x="1029" y="-2001.8" font-family="Times New Roman,serif" font-size="14.00">z002</text>
</g>
<!-- z001&#45;&gt;z002 -->
<g id="edge26" class="edge"><title>z001&#45;&gt;z002</title>
<path fill="none" stroke="purple" d="M939.996,-1964.7C956.183,-1972.2 978.424,-1982.51 996.496,-1990.89"/>
<polygon fill="purple" stroke="purple" points="995.498,-1994.29 1006.04,-1995.32 998.442,-1987.94 995.498,-1994.29"/>
<text text-anchor="middle" x="969.5" y="-1985.3" font-family="Times New Roman,serif" font-size="14.00" fill="purple">1&#45;3</text>
</g>
<!-- z003 -->
<g id="node45" class="node"><title>z003</title>
<ellipse fill="none" stroke="black" cx="1029" cy="-1933.5" rx="25" ry="25"/>
<text text-anchor="middle" x="1029" y="-1929.8" font-family="Times New Roman,serif" font-size="14.00">z003</text>
</g>
<!-- z001&#45;&gt;z003 -->
<g id="edge27" class="edge"><title>z001&#45;&gt;z003</title>
<path fill="none" stroke="purple" d="M941.598,-1949.99C956.863,-1947.08 976.982,-1943.24 993.964,-1940"/>
<polygon fill="purple" stroke="purple" points="994.895,-1943.38 1004.06,-1938.07 993.583,-1936.51 994.895,-1943.38"/>
<text text-anchor="middle" x="969.5" y="-1949.3" font-family="Times New Roman,serif" font-size="14.00" fill="purple">4&#45;6</text>
</g>
<!-- z004 -->
<g id="node46" class="node"><title>z004</title>
<ellipse fill="none" stroke="black" cx="1141" cy="-2049.5" rx="25" ry="25"/>
<text text-anchor="middle" x="1141" y="-2045.8" font-family="Times New Roman,serif" font-size="14.00">z004</text>
</g>
<!-- z002&#45;&gt;z004 -->
<g id="edge28" class="edge"><title>z002&#45;&gt;z004</title>
<path fill="none" stroke="green" d="M1052.53,-2014.51C1068.54,-2020.92 1090.28,-2029.61 1108.08,-2036.73"/>
<polygon fill="green" stroke="green" points="1106.92,-2040.04 1117.5,-2040.5 1109.52,-2033.54 1106.92,-2040.04"/>
<text text-anchor="middle" x="1088.5" y="-2034.3" font-family="Times New Roman,serif" font-size="14.00" fill="green">LK</text>
</g>
<!-- z005 -->
<g id="node47" class="node"><title>z005</title>
<ellipse fill="none" stroke="black" cx="1141" cy="-1977.5" rx="25" ry="25"/>
<text text-anchor="middle" x="1141" y="-1973.8" font-family="Times New Roman,serif" font-size="14.00">z005</text>
</g>
<!-- z002&#45;&gt;z005 -->
<g id="edge29" class="edge"><title>z002&#45;&gt;z005</title>
<path fill="none" stroke="brown" d="M1053.33,-1999.56C1068.93,-1995.59 1089.7,-1990.3 1106.99,-1985.9"/>
<polygon fill="brown" stroke="brown" points="1107.88,-1989.29 1116.71,-1983.43 1106.15,-1982.5 1107.88,-1989.29"/>
</g>
<!-- z006 -->
<g id="node48" class="node"><title>z006</title>
<ellipse fill="none" stroke="black" cx="1029" cy="-1839.5" rx="25" ry="25"/>
<text text-anchor="middle" x="1029" y="-1835.8" font-family="Times New Roman,serif" font-size="14.00">z006</text>
</g>
<!-- z003&#45;&gt;z006 -->
<g id="edge30" class="edge"><title>z003&#45;&gt;z006</title>
<path fill="none" stroke="black" d="M1029,-1898.15C1029,-1890.44 1029,-1882.73 1029,-1875.02"/>
<polygon fill="black" stroke="black" points="1025.5,-1898.29 1029,-1908.29 1032.5,-1898.29 1025.5,-1898.29"/>
<polygon fill="black" stroke="black" points="1032.5,-1874.84 1029,-1864.84 1025.5,-1874.84 1032.5,-1874.84"/>
</g>
<!-- z007 -->
<g id="node49" class="node"><title>z007</title>
<ellipse fill="none" stroke="black" cx="1251" cy="-2121.5" rx="25" ry="25"/>
<text text-anchor="middle" x="1251" y="-2117.8" font-family="Times New Roman,serif" font-size="14.00">z007</text>
</g>
<!-- z004&#45;&gt;z007 -->
<g id="edge31" class="edge"><title>z004&#45;&gt;z007</title>
<path fill="none" stroke="blue" d="M1162.31,-2063.04C1178.98,-2074.16 1202.78,-2090.02 1221.38,-2102.42"/>
<polygon fill="blue" stroke="blue" points="1219.52,-2105.38 1229.78,-2108.02 1223.4,-2099.56 1219.52,-2105.38"/>
<text text-anchor="middle" x="1196" y="-2095.3" font-family="Times New Roman,serif" font-size="14.00" fill="blue">req</text>
</g>
<!-- z008 -->
<g id="node50" class="node"><title>z008</title>
<ellipse fill="none" stroke="black" cx="1251" cy="-2049.5" rx="25" ry="25"/>
<text text-anchor="middle" x="1251" y="-2045.8" font-family="Times New Roman,serif" font-size="14.00">z008</text>
</g>
<!-- z004&#45;&gt;z008 -->
<g id="edge32" class="edge"><title>z004&#45;&gt;z008</title>
<path fill="none" stroke="#00cdcd" d="M1166.24,-2049.5C1180.83,-2049.5 1199.63,-2049.5 1215.73,-2049.5"/>
<polygon fill="#00cdcd" stroke="#00cdcd" points="1215.84,-2053 1225.84,-2049.5 1215.84,-2046 1215.84,-2053"/>
<text text-anchor="middle" x="1196" y="-2053.3" font-family="Times New Roman,serif" font-size="14.00" fill="#00cdcd">&#45;opt</text>
</g>
<!-- z009 -->
<g id="node51" class="node"><title>z009</title>
<ellipse fill="none" stroke="black" cx="1251" cy="-1977.5" rx="25" ry="25"/>
<text text-anchor="middle" x="1251" y="-1973.8" font-family="Times New Roman,serif" font-size="14.00">z009</text>
</g>
<!-- z005&#45;&gt;z009 -->
<g id="edge33" class="edge"><title>z005&#45;&gt;z009</title>
<path fill="none" stroke="grey" d="M1166.24,-1977.5C1180.83,-1977.5 1199.63,-1977.5 1215.73,-1977.5"/>
<polygon fill="grey" stroke="grey" points="1215.84,-1981 1225.84,-1977.5 1215.84,-1974 1215.84,-1981"/>
<text text-anchor="middle" x="1196" y="-1981.3" font-family="Times New Roman,serif" font-size="14.00" fill="grey">info</text>
</g>
<!-- z010 -->
<g id="node52" class="node"><title>z010</title>
<ellipse fill="none" stroke="black" cx="1378" cy="-1977.5" rx="25" ry="25"/>
<text text-anchor="middle" x="1378" y="-1973.8" font-family="Times New Roman,serif" font-size="14.00">z010</text>
</g>
<!-- z009&#45;&gt;z010 -->
<g id="edge34" class="edge"><title>z009&#45;&gt;z010</title>
<path fill="none" stroke="crimson" d="M1276.1,-1977.5C1295.04,-1977.5 1321.65,-1977.5 1342.79,-1977.5"/>
<polygon fill="crimson" stroke="crimson" points="1342.97,-1981 1352.97,-1977.5 1342.97,-1974 1342.97,-1981"/>
<text text-anchor="middle" x="1316.5" y="-1981.3" font-family="Times New Roman,serif" font-size="14.00" fill="crimson">error(?)</text>
</g>
<!-- z011 -->
<g id="node53" class="node"><title>z011</title>
<ellipse fill="none" stroke="black" cx="1497" cy="-1977.5" rx="25" ry="25"/>
<text text-anchor="middle" x="1497" y="-1973.8" font-family="Times New Roman,serif" font-size="14.00">z011</text>
</g>
<!-- z010&#45;&gt;z011 -->
<g id="edge35" class="edge"><title>z010&#45;&gt;z011</title>
<path fill="none" stroke="magenta" d="M1403.24,-1977.5C1420.11,-1977.5 1442.84,-1977.5 1461.57,-1977.5"/>
<polygon fill="magenta" stroke="magenta" points="1461.79,-1981 1471.79,-1977.5 1461.79,-1974 1461.79,-1981"/>
<text text-anchor="middle" x="1437.5" y="-1981.3" font-family="Times New Roman,serif" font-size="14.00" fill="magenta">escape</text>
</g>
</g>
</svg>
